<svg xmlns="http://www.w3.org/2000/svg" version="1.1" xmlns:xlink="http://www.w3.org/1999/xlink" xmlns:svgjs="http://svgjs.dev/svgjs" width="1500" height="1682" viewBox="0 0 1500 1682"><g transform="matrix(1,0,0,1,-2.336338785046678,0)"><svg viewBox="0 0 321 360" data-background-color="#61777f" preserveAspectRatio="xMidYMid meet" height="1682" width="1500" xmlns="http://www.w3.org/2000/svg" xmlns:xlink="http://www.w3.org/1999/xlink"><g id="tight-bounds" transform="matrix(1,0,0,1,0.5000234999999975,0)"><svg viewBox="0 0 320 360" height="360" width="320"><g><svg></svg></g><g><svg viewBox="0 0 320 360" height="360" width="320"><g><path transform="translate(-74.99272,-51.79039) scale(4.65793,4.65793)" d="M20.6 59.9l0.8 1-0.4-1.3c-0.1-0.6-0.8 0.1-0.4 0.3M21.5 59.3c0.3 0.5 0.6 1 0.6 1.5 0 0.7 0.6 1 1.1 1.2-0.7-0.8-1.1-3-1.7-2.7M59.9 16.9c1.7 0 3.3-0.2 5.1 0.2 4.4 1.1 8.1 3.3 10.6 6.4l7 11.2c0.3 2.8 0.9 5.9 0.8 9.3 0.7 0 0.6-1 1.4-1.2-0.8 2-1.2 4.5-1.4 7.4-0.5-1.6 0-4 0.1-5.3-0.7 1.1-1.1 0.3-1.1-0.2 0.1-0.8-0.3-0.7-0.6-1-1.1-1-1.8-2.1-2.6-3.8 0.5-1.3 0.6-3.2-1-4.2-0.5-0.3-1.1-0.8-1.4-1.6-0.4-1.1-1.1-2.4-0.9-4.1 0.1-0.5-1.5 1.1-2.4 0.4-3.9-2.7-7.8-5.8-12.5-8.4-2.5 0-4.3-0.9-5.2-2-0.8-1-0.2-2.3 1-2.4 0.7 0 1.5-0.2 2.1 0.2 0.1-0.4 0.5-0.9 1-0.9M50 14.6l0.2 0.1c1 0.2 1.5 1.6 2.6 1.1 0 0.7 0.1 1.4-0.1 1.9-0.3 0.8-1.2 0.8-1.9 0.8-6.7-0.4-10.6 2.4-14.7 4.8-1.1 0.7-2.3 1.2-3.2 2.1-4.3 4-9 7.7-10.1 15.1l-0.9 8.2c-0.1 0.9-1.1 1.8-0.9 2.9l0.7 4.9c-0.7-0.7-1.1 0.2-0.9 0.6 0.1 0.3 0.5 1.3 1.1 0.4 0.8 1.5 1.6 4.4 2.7 5.7 3.4 4 7.8 7.6 11.4 11.2 0.9-0.2 1.6-0.2 1.8-0.8 0.3 0.6-0.3 1.2-0.8 1.3 1.6 1 3.4 1.9 5.8 2.1 3.1 0.2 6 0.7 8.7 1.4 1.4-0.4 2.8-0.6 4.3-0.7 0.5 0 0.8-0.8 1.4-1l0.1-1c0.6 0.9 0.5-0.3 0.1-0.9 0.7 0.6 0.9 1.1 1.2 1.5 0-0.3 0.8-1.4 0.8-0.1l0.2-1.3c0.3-0.2 0.4 1.1 0.7 0.2 0.3-0.9 0.9-0.2 1.5-0.5-0.2 0.4-0.1 1.2 0.6 0.7l0.8-0.7c0.5 1.2 1.3 0.7 1.7 0.5 4.4-2.8 8.8-6.1 13-9.4l-0.1 1.3 0.5-1.6c0.5 0.5 0.9 0.1 1.1-0.2 0.6-1 1.4-2 2.7-2.9-1.6 4.3-3.5 7.7-5.9 10.5l-1 1.2c0 0.7-0.2 1.6-1 1.7-0.4 0.1-1.2-0.2-1.8 0.4-0.3 0.4 0.7 1.2-0.1 0.6-0.7-0.5-1.4 0-2.2 0.2-0.6 0.2 0.4 0.8 0.6 1.2 0.2 0.4 0.4 0.8 0.3 1.3l-1.1-1.2c-1.3 0.7-2.1 2-3.2 3-0.5 0.4-0.3 1.1-0.3 1.7-0.7 0-1.5-0.2-1.9 0.2-0.3 0.4-0.2 1-0.2 1.6-1-0.1-1.1-1.6-2-1.3-0.9 0.2-1.9 0.3-2.7 0.8 0.6 1.2-1 0.5-0.8 0.7-1.5-0.9-2.8-1.6-4.4-1-3.4-1.1-7.6-0.6-10.7-0.2 0-0.5 0.1-1-0.1-1.1-0.2 0.5-0.8 0.3-0.7 0.3-1.9-1.3-3.8-2.1-5.8-3.2-1.8 0.2-3.5-0.7-4-1.2-1.4-1.3-3-0.6-4.3-0.9-2.8-0.7-3.8-3.6-4.1-5.6-0.2-1-1-1.4-1.3-1.3-1.3-4.2-3.3-8-4.9-11.9-0.4-1-0.3-2-0.3-3.1 0.5 0.2 1 0.1 0.9-0.6-0.5-3.3-1.7-5.8-3-8.2 0.7-3.4 0.8-7.4 2.4-10.4 1.4-2.7 4-4.1 5.8-6.4 0.6-0.8 0.6-1.9 1.2-2.6 2-2 4-4.1 6.2-5.9 1-0.8 2.2 0 3.7-0.3 0.5-1.8 2.5-3.4 4.4-2.9 0.8 0.2 2.4-1.9 2.9-2.1 0.8-0.3 0.4 0.8 0.4 1.5 1.9-1.5 4.5-2.3 6.9-3.2" fill="#ffffff" fill-rule="nonzero" stroke="none" stroke-width="1" stroke-linecap="butt" stroke-linejoin="miter" stroke-miterlimit="10" stroke-dasharray="" stroke-dashoffset="0" font-family="none" font-weight="none" font-size="none" text-anchor="none" style="mix-blend-mode: normal" data-fill-palette-color="tertiary"></path></g><g transform="matrix(1,0,0,1,96.34428107413189,90)"><svg viewBox="0 0 127.31143785173622 180" height="180" width="127.31143785173622"><g><svg viewBox="0 0 192.95999999999998 272.8175927166023" height="180" width="127.31143785173622"><g><rect width="192.95999999999998" height="8.898606352643963" x="0" y="141.94928273547532" fill="#ffffff" opacity="1" stroke-width="0" stroke="transparent" fill-opacity="1" class="rect-yte-0" data-fill-palette-color="primary" rx="1%" id="yte-0" data-palette-color="#ffffff"></rect></g><g transform="matrix(1,0,0,1,0.47999999999998977,174.14267011598304)"><svg viewBox="0 0 192 98.6749226006192" height="98.6749226006192" width="192"><g id="textblocktransform"><svg viewBox="0 0 192 98.6749226006192" height="98.6749226006192" width="192" id="textblock"><g><svg viewBox="0 0 192 98.6749226006192" height="98.6749226006192" width="192"><g transform="matrix(1,0,0,1,0,0)"><svg width="192" viewBox="0.1 -33.2 64.60000000000001 33.2" height="98.6749226006192" data-palette-color="#ffffff"><path d="M14.95-24.05L19.2-33.2Q22.15-24.95 25.53-17.28 28.9-9.6 31.75-2.95L31.75-2.95 35.65-1.9 35 0Q33.45-0.1 31.53-0.13 29.6-0.15 28.05-0.15L28.05-0.15Q27.15-0.15 25.68-0.13 24.2-0.1 22.75-0.08 21.3-0.05 20.4 0L20.4 0 19.7-1.9 23.6-2.95Q22.1-6.8 19.83-12.33 17.55-17.85 14.95-24.05L14.95-24.05ZM16.65-33.2L19.2-33.2Q18.85-32.3 18.53-31.55 18.2-30.8 17.85-29.75 17.5-28.7 17.1-26.9L17.1-26.9Q16.15-24.3 14.98-21.08 13.8-17.85 12.58-14.53 11.35-11.2 10.35-8.18 9.35-5.15 8.8-2.95L8.8-2.95 12.5-1.9 11.85 0Q8.65-0.15 5.95-0.15L5.95-0.15Q3.45-0.15 0.75 0L0.75 0 0.1-1.9 3.8-2.95Q4.75-4.7 6.03-7.38 7.3-10.05 8.72-13.3 10.15-16.55 11.6-20.05 13.05-23.55 14.35-26.93 15.65-30.3 16.65-33.2L16.65-33.2ZM23.85-11.25L23.85-11.25 23.85-7.35Q21.7-7.6 19.78-7.65 17.85-7.7 16.25-7.7L16.25-7.7Q14.55-7.7 12.93-7.65 11.3-7.6 9.35-7.35L9.35-7.35 9.35-11.2Q11.3-10.95 12.93-10.85 14.55-10.75 16.25-10.75L16.25-10.75Q17.85-10.75 19.78-10.85 21.7-10.95 23.85-11.25ZM53.7-33L53.7-33Q59.3-33 62-30.43 64.7-27.85 64.7-23.65L64.7-23.65Q64.7-20.45 63.12-18.03 61.55-15.6 58.62-14.25 55.7-12.9 51.65-12.9L51.65-12.9Q50.75-12.9 49.45-13.05 48.15-13.2 46.7-13.5L46.7-13.5 46.7-16.65Q48.35-16.3 49.52-16.07 50.7-15.85 51.6-15.85L51.6-15.85Q52.3-15.85 52.9-15.93 53.5-16 54.05-16.1L54.05-16.1Q55.65-17.15 56.42-19.03 57.2-20.9 57.2-23L57.2-23Q57.2-24.8 56.65-26.43 56.1-28.05 55-29.08 53.9-30.1 52.3-30.1L52.3-30.1Q51.3-30.1 50.45-29.98 49.6-29.85 48.95-29.75L48.95-29.75Q48.95-28.35 48.95-26.13 48.95-23.9 48.95-21.5 48.95-19.1 48.95-17.05 48.95-15 48.95-13.9L48.95-13.9Q48.95-12.2 48.95-11.18 48.95-10.15 48.95-9.47 48.95-8.8 48.95-8.08 48.95-7.35 48.95-6.23 48.95-5.1 48.95-3.2L48.95-3.2 54.45-1.9 53.75 0Q51.15-0.15 45.2-0.15L45.2-0.15Q42.75-0.15 40.9-0.1 39.05-0.05 37.5 0L37.5 0 36.75-1.9 41.4-2.95Q41.5-5.2 41.55-8.03 41.6-10.85 41.62-13.6 41.65-16.35 41.65-18.3L41.65-18.3Q41.65-20.9 41.62-22.73 41.6-24.55 41.55-26.18 41.5-27.8 41.4-29.8L41.4-29.8 36.95-31.1 37.5-33Q39.05-32.95 40.2-32.9 41.35-32.85 42.52-32.83 43.7-32.8 45.15-32.8L45.15-32.8Q46.7-32.8 47.95-32.85 49.2-32.9 50.52-32.95 51.85-33 53.7-33Z" opacity="1" transform="matrix(1,0,0,1,0,0)" fill="#ffffff" class="wordmark-text-0" data-fill-palette-color="primary" id="text-0"></path></svg></g></svg></g></svg></g></svg></g><g transform="matrix(1,0,0,1,37.15199999999999,0)"><svg viewBox="0 0 118.656 118.65450170761156" height="118.65450170761156" width="118.656"><g><svg xmlns="http://www.w3.org/2000/svg" xmlns:xlink="http://www.w3.org/1999/xlink" version="1.0" x="0" y="0" viewBox="9.999989811685603 10 80.0010101883144 80" enable-background="new 0 0 100 100" xml:space="preserve" height="118.65450170761156" width="118.656" class="icon-icon-0" data-fill-palette-color="accent" id="icon-0"><path fill="none" stroke="#FFFFFF" stroke-linecap="round" stroke-linejoin="round" stroke-miterlimit="10" d="M25 69.998L22.499 90z"></path><path fill="none" stroke="#FFFFFF" stroke-linecap="round" stroke-linejoin="round" stroke-miterlimit="10" d="M47.5 49.169C45.943 50.096 44.262 50.623 42.501 50.623 40.252 50.623 38.13 49.79 36.241 48.329V48.877A6.63 6.63 0 0 1 34.288 53.594 6.7 6.7 0 0 1 32.121 55.039L13.366 62.812A11.45 11.45 0 0 0 10 70.936V90H47.5z"></path><path fill="none" stroke="#FFFFFF" stroke-linecap="round" stroke-linejoin="round" stroke-miterlimit="10" d="M47.5 10.912A14.2 14.2 0 0 0 42.501 10C35.239 10 29.262 15.446 28.397 22.478V26.537C26.557 27.191 25.234 28.928 25.234 30.991 25.234 35.029 27.284 38.302 29.84 38.415 32.19 45.657 36.971 50.624 42.5 50.624 44.261 50.624 45.942 50.118 47.499 49.195z"></path><path fill="none" stroke="#FFFFFF" stroke-linecap="round" stroke-linejoin="round" stroke-miterlimit="10" d="M77.272 53.51L74.619 50.858z"></path><circle fill="none" stroke="#FFFFFF" stroke-linecap="round" stroke-linejoin="round" stroke-miterlimit="10" cx="77.499" cy="77.498" r="5.7"></circle><path fill="none" stroke="#FFFFFF" stroke-linecap="round" stroke-linejoin="round" stroke-miterlimit="10" d="M81.088 86.158C82.554 85.553 84.205 86.156 84.979 87.496A12.5 12.5 0 0 0 87.496 84.976 3.12 3.12 0 0 1 86.161 81.083 3.114 3.114 0 0 1 89.856 79.278C89.94 78.696 89.999 78.104 89.999 77.497 89.999 76.892 89.94 76.302 89.856 75.72A3.12 3.12 0 0 1 86.161 73.911 3.115 3.115 0 0 1 87.496 70.02 12.5 12.5 0 0 0 84.979 67.499C84.206 68.843 82.552 69.446 81.086 68.839A3.115 3.115 0 0 1 79.279 65.14 13 13 0 0 0 77.5 65C76.892 65 76.303 65.059 75.719 65.141A3.12 3.12 0 0 1 73.912 68.84 3.114 3.114 0 0 1 70.022 67.504 12.6 12.6 0 0 0 67.503 70.022 3.115 3.115 0 0 1 68.84 73.913 3.12 3.12 0 0 1 65.142 75.722 12 12 0 0 0 65 77.499C65 78.106 65.057 78.698 65.142 79.28A3.12 3.12 0 0 1 68.84 81.089 3.12 3.12 0 0 1 67.503 84.982 12.6 12.6 0 0 0 70.022 87.498 3.12 3.12 0 0 1 73.912 86.16 3.12 3.12 0 0 1 75.719 89.861C76.303 89.941 76.892 90 77.5 90 78.106 90 78.697 89.941 79.279 89.859A3.124 3.124 0 0 1 81.088 86.158"></path><path fill="none" stroke="#FFFFFF" stroke-linecap="round" stroke-linejoin="round" stroke-miterlimit="10" d="M86.59 36.65V33.346z"></path><path fill="none" stroke="#FFFFFF" stroke-linecap="round" stroke-linejoin="round" stroke-miterlimit="10" d="M78.777 10.357A1.22 1.22 0 0 0 77.049 10.361H77.049L58.892 28.513 55.003 35 61.485 31.111 79.644 12.952H79.644A1.22 1.22 0 0 0 79.644 11.225z"></path><path fill="none" stroke="#FFFFFF" stroke-linecap="round" stroke-linejoin="round" stroke-miterlimit="10" d="M75.32 12.086L77.915 14.681z"></path><path fill="none" stroke="#FFFFFF" stroke-linecap="round" stroke-linejoin="round" stroke-miterlimit="10" d="M73.591 13.816L76.186 16.411z"></path><path fill="none" stroke="#FFFFFF" stroke-linecap="round" stroke-linejoin="round" stroke-miterlimit="10" d="M58.892 28.516L61.486 31.111z"></path><path fill="none" stroke="#FFFFFF" stroke-linecap="round" stroke-linejoin="round" stroke-miterlimit="10" d="M83.902 56.6L71.527 44.229A3.75 3.75 0 0 0 66.223 44.229H66.223L47.5 62.953V78.531L54.734 85.769A3.745 3.745 0 0 0 60.037 85.769L66.565 79.242A3.05 3.05 0 0 0 65.142 79.279 12 12 0 0 1 65 77.498C65 76.893 65.057 76.303 65.142 75.721A3.12 3.12 0 0 0 68.84 73.912 3.115 3.115 0 0 0 67.503 70.021 12.6 12.6 0 0 1 70.022 67.503 3.114 3.114 0 0 0 73.912 68.839 3.12 3.12 0 0 0 75.719 65.14 13 13 0 0 1 77.5 65C78.104 65 78.695 65.059 79.279 65.141 79.149 65.62 79.149 66.106 79.241 66.567L83.9 61.907H83.902A3.755 3.755 0 0 0 83.902 56.6"></path><path fill="none" stroke="#FFFFFF" stroke-linecap="round" stroke-linejoin="round" stroke-miterlimit="10" d="M65.34 45.115L47.5 62.953V69.701L61.804 84.006 66.569 79.242A3.06 3.06 0 0 0 65.143 79.279 12 12 0 0 1 65.001 77.498C65.001 76.893 65.058 76.303 65.143 75.721A3.12 3.12 0 0 0 68.841 73.912 3.115 3.115 0 0 0 67.504 70.021 12.6 12.6 0 0 1 70.023 67.503 3.114 3.114 0 0 0 73.913 68.839 3.12 3.12 0 0 0 75.72 65.14C76.303 65.059 76.892 65 77.5 65 78.104 65 78.695 65.059 79.279 65.141A3.1 3.1 0 0 0 79.241 66.571L83.018 62.792z"></path><path fill="none" stroke="#FFFFFF" stroke-linecap="round" stroke-linejoin="round" stroke-miterlimit="10" d="M86.692 16.817H75.779L61.485 31.111 55.003 35 58.892 28.514 70.589 16.818H47.5V53.185H57.271L66.224 44.23H66.224A3.75 3.75 0 0 1 71.528 44.23L80.482 53.185H86.693A3.31 3.31 0 0 0 90.001 49.877V20.125A3.31 3.31 0 0 0 86.692 16.817"></path><path fill="none" stroke="#FFFFFF" stroke-linecap="round" stroke-linejoin="round" stroke-miterlimit="10" d="M73.505 19.09L61.485 31.111 55.003 35 58.892 28.514 68.317 19.091H47.5V50.911H59.544L66.224 44.23H66.224A3.75 3.75 0 0 1 71.528 44.23L78.209 50.911H83.182V19.09z"></path></svg></g></svg></g><g></g></svg></g></svg></g></svg></g><defs></defs></svg><rect width="320" height="360" fill="none" stroke="none" visibility="hidden"></rect></g></svg></g></svg>